<svg width="115" height="105" viewBox="0 0 115 105" fill="none" xmlns="http://www.w3.org/2000/svg">
<path fillRule="evenodd" clip-rule="evenodd" d="M67.2433 93.6413L66.5728 94.8026C63.733 99.7213 57.4435 101.407 52.5249 98.5668C47.6062 95.727 45.9209 89.4375 48.7607 84.5188L57.5912 69.224L66.5658 84.7685C68.1881 87.5783 68.3336 90.8354 67.2433 93.6413ZM43.7569 86.3974C44.0692 85.0684 44.5788 83.7621 45.2966 82.5188L55.2818 65.224L23.612 10.3702C20.7722 5.45157 14.4827 3.76631 9.56403 6.60611C4.64536 9.4459 2.9601 15.7354 5.79989 20.6541L43.7569 86.3974ZM57.5912 61.224L27.0761 8.37024C23.1317 1.5384 14.3959 -0.802362 7.56403 3.142C0.732191 7.08637 -1.60858 15.8222 2.33579 22.6541L45.2896 97.0523C49.234 103.884 57.9698 106.225 64.8017 102.281C67.629 100.648 69.6871 98.1952 70.8489 95.3962L112.991 22.4044C116.935 15.5726 114.594 6.83674 107.763 2.89237C100.931 -1.05199 92.1948 1.28876 88.2505 8.12061L57.5912 61.224ZM59.9006 65.224L91.7146 10.1206C94.5544 5.20194 100.844 3.51668 105.763 6.35647C110.681 9.19627 112.366 15.4858 109.527 20.4044L71.483 86.298C71.1664 85.0894 70.6848 83.9027 70.0299 82.7685L59.9006 65.224Z" fill="black"/>
</svg>
